<svg width="33" height="34" viewBox="0 0 33 34" fill="none" xmlns="http://www.w3.org/2000/svg">
<path d="M16.4728 0C7.7888 0 0.677759 6.69423 0 15.2043L8.85799 18.8685C9.60824 18.3539 10.5143 18.0567 11.4929 18.0567C11.5799 18.0567 11.6669 18.0603 11.7539 18.0639L15.6936 12.3483C15.6936 12.3229 15.6936 12.2939 15.6936 12.2685C15.6936 8.83262 18.4916 6.0346 21.9275 6.0346C25.3634 6.0346 28.1614 8.83262 28.1614 12.2685C28.1614 15.7044 25.3634 18.5025 21.9275 18.5025C21.8804 18.5025 21.8333 18.5025 21.7862 18.4988L16.1647 22.511C16.1684 22.5835 16.1684 22.6596 16.1684 22.7321C16.1684 25.3127 14.0699 27.4112 11.4893 27.4112C9.22405 27.4112 7.33213 25.7947 6.90082 23.6527L0.569028 21.0323C2.52982 27.9694 8.90511 33.058 16.4728 33.058C25.6026 33.058 33 25.657 33 16.5308C33 7.40099 25.599 0 16.4728 0Z" fill="white"/>
<path d="M10.358 25.0806L8.32837 24.2434C8.68718 24.9936 9.31058 25.6206 10.1369 25.965C11.9238 26.708 13.9824 25.8599 14.729 24.073C15.0878 23.2068 15.0915 22.2536 14.7327 21.3874C14.3775 20.5211 13.7033 19.8434 12.8371 19.4846C11.9781 19.1258 11.0575 19.1403 10.2493 19.4447L12.3478 20.3109C13.6671 20.8618 14.2905 22.3732 13.7396 23.6925C13.1887 25.0045 11.6773 25.6279 10.358 25.0806Z" fill="white"/>
<path d="M26.0813 12.2684C26.0813 9.9778 24.2183 8.11487 21.9277 8.11487C19.6371 8.11487 17.7742 9.9778 17.7742 12.2684C17.7742 14.559 19.6371 16.422 21.9277 16.422C24.2183 16.422 26.0813 14.559 26.0813 12.2684ZM18.8144 12.2612C18.8144 10.5396 20.2134 9.14057 21.935 9.14057C23.6565 9.14057 25.0556 10.536 25.0556 12.2612C25.0556 13.9827 23.6602 15.3818 21.935 15.3818C20.2098 15.3818 18.8144 13.9864 18.8144 12.2612Z" fill="white"/>
</svg>
